<?xml version="1.0" encoding="UTF-8" standalone="no"?>
<!-- Created with Inkscape (http://www.inkscape.org/) -->

<svg
   width="69.641998mm"
   height="37.153mm"
   viewBox="0 0 69.641998 37.153"
   version="1.1"
   id="svg1"
   inkscape:version="1.2 (dc2aeda, 2022-05-15)"
   sodipodi:docname="jfr_logo.svg"
   xmlns:inkscape="http://www.inkscape.org/namespaces/inkscape"
   xmlns:sodipodi="http://sodipodi.sourceforge.net/DTD/sodipodi-0.dtd"
   xmlns="http://www.w3.org/2000/svg"
   xmlns:svg="http://www.w3.org/2000/svg">
  <sodipodi:namedview
     id="namedview1"
     pagecolor="#ffffff"
     bordercolor="#000000"
     borderopacity="0.25"
     inkscape:showpageshadow="2"
     inkscape:pageopacity="0.0"
     inkscape:pagecheckerboard="0"
     inkscape:deskcolor="#d1d1d1"
     inkscape:document-units="mm"
     inkscape:zoom="0.94867184"
     inkscape:cx="-36.893685"
     inkscape:cy="49.542948"
     inkscape:window-width="1427"
     inkscape:window-height="456"
     inkscape:window-x="0"
     inkscape:window-y="38"
     inkscape:window-maximized="0"
     inkscape:current-layer="layer1"
     showgrid="false" />
  <defs
     id="defs1">
    <clipPath
       clipPathUnits="userSpaceOnUse"
       id="clipPath55">
      <path
         d="m 60,254.071 h 186.142 v 81.834 H 60 Z"
         transform="translate(-72.368302,-314.01131)"
         id="path55" />
    </clipPath>
    <clipPath
       clipPathUnits="userSpaceOnUse"
       id="clipPath57">
      <path
         d="m 60,254.071 h 186.142 v 81.834 H 60 Z"
         transform="translate(-88.986602,-281.66781)"
         id="path57" />
    </clipPath>
    <clipPath
       clipPathUnits="userSpaceOnUse"
       id="clipPath59">
      <path
         d="m 60,254.071 h 186.142 v 81.834 H 60 Z"
         transform="translate(-113.26731,-281.61861)"
         id="path59" />
    </clipPath>
    <clipPath
       clipPathUnits="userSpaceOnUse"
       id="clipPath61">
      <path
         d="m 60,254.071 h 186.142 v 81.834 H 60 Z"
         transform="translate(-144.151,-313.60471)"
         id="path61" />
    </clipPath>
    <clipPath
       clipPathUnits="userSpaceOnUse"
       id="clipPath63">
      <path
         d="m 60,254.071 h 186.142 v 81.834 H 60 Z"
         transform="translate(-153.81531,-324.69201)"
         id="path63" />
    </clipPath>
    <clipPath
       clipPathUnits="userSpaceOnUse"
       id="clipPath65">
      <path
         d="m 60,254.071 h 186.142 v 81.834 H 60 Z"
         transform="translate(-170.23041,-281.66781)"
         id="path65" />
    </clipPath>
    <clipPath
       clipPathUnits="userSpaceOnUse"
       id="clipPath67">
      <path
         d="m 60,254.071 h 186.142 v 81.834 H 60 Z"
         transform="translate(-133.86951,-256.51731)"
         id="path67" />
    </clipPath>
    <clipPath
       clipPathUnits="userSpaceOnUse"
       id="clipPath69">
      <path
         d="m 60,254.071 h 186.142 v 81.834 H 60 Z"
         transform="translate(-157.2211,-324.93851)"
         id="path69" />
    </clipPath>
    <clipPath
       clipPathUnits="userSpaceOnUse"
       id="clipPath71">
      <path
         d="m 60,254.071 h 186.142 v 81.834 H 60 Z"
         transform="translate(-237.57211,-314.39321)"
         id="path71" />
    </clipPath>
    <clipPath
       clipPathUnits="userSpaceOnUse"
       id="clipPath73">
      <path
         d="m 60,254.071 h 186.142 v 81.834 H 60 Z"
         transform="translate(-240.3118,-309.90311)"
         id="path73" />
    </clipPath>
    <clipPath
       clipPathUnits="userSpaceOnUse"
       id="clipPath75">
      <path
         d="m 60,254.071 h 186.142 v 81.834 H 60 Z"
         transform="translate(-207.92491,-256.10251)"
         id="path75" />
    </clipPath>
  </defs>
  <g
     inkscape:label="Layer 1"
     inkscape:groupmode="layer"
     id="layer1"
     transform="translate(-77.543135,-59.365866)">
    <g
       id="group-MC2"
       transform="matrix(0.26458333,0,0,0.26458333,58.376278,-114.63417)">
      <path
         id="path54"
         d="M 0,0 V -27.484 C 0,-33.551 -4.478,-38.3 -10.2,-38.3 h -1.552 c -0.339,0 -0.616,0.277 -0.616,0.616 v 3.105 c 0,0.338 0.277,0.616 0.616,0.616 h 1.552 c 3.227,0 5.858,2.907 5.858,6.479 V 0 c 0,0.339 0.277,0.616 0.615,0.616 h 3.111 C -0.277,0.616 0,0.339 0,0"
         style="fill:#3d91c2;fill-opacity:1;fill-rule:nonzero;stroke:none"
         transform="matrix(1.3333333,0,0,-1.3333333,96.491067,703.83827)"
         clip-path="url(#clipPath55)" />
      <path
         id="path56"
         d="m 0,0 c -4.33,0 -7.86,4.318 -7.86,9.627 0,5.285 3.53,9.584 7.86,9.584 4.33,0 7.853,-4.299 7.853,-9.584 C 7.853,4.318 4.33,0 0,0 M 8.876,19.15 C 6.591,21.928 3.443,23.462 0,23.462 c -6.726,0 -12.196,-6.228 -12.196,-13.878 0,-3.529 1.214,-7.034 3.32,-9.609 2.279,-2.784 5.427,-4.317 8.876,-4.317 6.72,0 12.19,6.245 12.19,13.926 0,3.505 -1.208,6.997 -3.314,9.566"
         style="fill:#3d91c2;fill-opacity:1;fill-rule:nonzero;stroke:none"
         transform="matrix(1.3333333,0,0,-1.3333333,118.6488,746.96293)"
         clip-path="url(#clipPath57)" />
      <path
         id="path58"
         d="m 0,0 h -0.148 l -2.587,0.037 v 18.725 c 0.24,-0.025 0.499,-0.031 0.758,-0.031 h 1.823 c 5.162,0 9.362,-4.201 9.362,-9.369 C 9.208,4.287 4.989,0 0,0 m -0.154,23.11 h -1.823 c -0.758,0 -0.758,0.216 -0.758,0.358 v 8.518 c 0,0.339 -0.277,0.616 -0.616,0.616 h -3.104 c -0.339,0 -0.616,-0.277 -0.616,-0.616 V -3.677 c 0,-0.339 0.277,-0.616 0.616,-0.616 h 6.301 c 7.576,0 13.742,6.129 13.742,13.655 0,7.453 -6.295,13.748 -13.742,13.748"
         style="fill:#3d91c2;fill-opacity:1;fill-rule:nonzero;stroke:none"
         transform="matrix(1.3333333,0,0,-1.3333333,151.02307,747.02853)"
         clip-path="url(#clipPath59)" />
      <path
         id="path60"
         d="m 0,0 v -3.018 c 0,-0.339 -0.277,-0.616 -0.616,-0.616 h -1.552 c -2.661,0 -4.977,-2.02 -5.673,-4.823 0.203,0.018 0.406,0.025 0.616,0.025 h 5.543 c 0.339,0 0.616,-0.278 0.616,-0.616 v -3.105 c 0,-0.338 -0.277,-0.616 -0.616,-0.616 h -5.543 c -0.807,0 -0.807,-0.191 -0.807,-0.406 v -32.344 c 0,-0.338 -0.271,-0.616 -0.616,-0.616 h -3.104 c -0.339,0 -0.616,0.278 -0.616,0.616 V -10.2 c 0,5.962 4.576,10.816 10.2,10.816 h 1.552 C -0.277,0.616 0,0.339 0,0"
         style="fill:#86ce4c;fill-opacity:1;fill-rule:nonzero;stroke:none"
         transform="matrix(1.3333333,0,0,-1.3333333,192.20133,704.3804)"
         clip-path="url(#clipPath61)" />
      <path
         id="path62"
         d="m 0,0 v -47.367 c 0,-0.338 -0.277,-0.615 -0.616,-0.615 H -3.72 c -0.339,0 -0.616,0.277 -0.616,0.615 V 0 c 0,0.339 0.277,0.616 0.616,0.616 h 3.104 C -0.277,0.616 0,0.339 0,0"
         style="fill:#86ce4c;fill-opacity:1;fill-rule:nonzero;stroke:none"
         transform="matrix(1.3333333,0,0,-1.3333333,205.08707,689.59733)"
         clip-path="url(#clipPath63)" />
      <path
         id="path64"
         d="m 0,0 c -4.33,0 -7.853,4.318 -7.853,9.627 0,5.285 3.523,9.584 7.853,9.584 4.33,0 7.853,-4.299 7.853,-9.584 C 7.853,4.318 4.33,0 0,0 M 8.876,19.15 C 6.597,21.928 3.443,23.462 0,23.462 c -6.72,0 -12.19,-6.228 -12.19,-13.878 0,-3.529 1.208,-7.034 3.314,-9.609 2.279,-2.784 5.433,-4.317 8.876,-4.317 6.726,0 12.19,6.245 12.19,13.926 0,3.505 -1.208,6.997 -3.314,9.566"
         style="fill:#86ce4c;fill-opacity:1;fill-rule:nonzero;stroke:none"
         transform="matrix(1.3333333,0,0,-1.3333333,226.97387,746.96293)"
         clip-path="url(#clipPath65)" />
      <path
         id="path66"
         d="M 0,0 C -0.577,0 -1.121,0.269 -1.471,0.729 L -7.001,8 c -0.617,0.813 -0.46,1.972 0.352,2.589 0.813,0.619 1.971,0.46 2.59,-0.351 L 0,4.9 4.059,10.238 c 0.619,0.811 1.777,0.97 2.59,0.351 C 7.461,9.972 7.618,8.813 7.001,8 L 1.471,0.729 C 1.121,0.269 0.577,0 0,0"
         style="fill:#86ce4c;fill-opacity:1;fill-rule:nonzero;stroke:none"
         transform="matrix(1.3333333,0,0,-1.3333333,178.49267,780.49693)"
         clip-path="url(#clipPath67)" />
      <path
         id="path68"
         d="m 0,0 c -0.557,0 -1.109,0.252 -1.472,0.729 l -4.059,5.338 -4.06,-5.338 c -0.617,-0.812 -1.777,-0.97 -2.589,-0.352 -0.812,0.618 -0.971,1.778 -0.353,2.59 l 5.531,7.271 c 0.35,0.459 0.894,0.729 1.471,0.729 0.577,0 1.121,-0.27 1.47,-0.729 L 1.469,2.967 C 2.087,2.155 1.93,0.995 1.118,0.377 0.783,0.123 0.39,0 0,0"
         style="fill:#86ce4c;fill-opacity:1;fill-rule:nonzero;stroke:none"
         transform="matrix(1.3333333,0,0,-1.3333333,209.62813,689.26867)"
         clip-path="url(#clipPath69)" />
      <path
         id="path70"
         d="m 0,0 c -0.018,-0.08 -0.074,-0.148 -0.142,-0.191 -10.286,-5.845 -17.511,-13.76 -21.466,-23.517 -0.006,-0.018 -0.006,-0.037 -0.012,-0.055 l -4.761,-12.794 c -0.049,-0.117 -0.16,-0.197 -0.29,-0.197 h -2.704 c -0.135,0 -0.252,0.087 -0.295,0.216 l -5.119,16.563 -5.112,-16.563 c -0.043,-0.129 -0.16,-0.216 -0.296,-0.216 h -2.704 c -0.129,0 -0.246,0.08 -0.289,0.197 l -9.893,26.566 c -0.036,0.099 -0.024,0.204 0.037,0.284 0.056,0.086 0.148,0.135 0.253,0.135 h 3.326 c 0.129,0 0.24,-0.08 0.29,-0.203 l 7.483,-20.08 5.15,17 c 0.037,0.129 0.16,0.222 0.295,0.222 h 2.791 c 0.135,0 0.252,-0.086 0.295,-0.216 l 5.273,-17.012 2.457,6.578 c 0.013,0.043 0.037,0.074 0.062,0.105 4.195,10.945 12.066,19.759 23.4,26.196 0.148,0.086 0.339,0.037 0.419,-0.111 L -0.031,0.234 C 0.012,0.16 0.025,0.074 0,0"
         style="fill:#86ce4c;fill-opacity:1;fill-rule:nonzero;stroke:none"
         transform="matrix(1.3333333,0,0,-1.3333333,316.7628,703.32907)"
         clip-path="url(#clipPath71)" />
      <path
         id="path72"
         d="m 0,0 c -0.265,0 -0.535,0.057 -0.789,0.179 -0.923,0.436 -1.317,1.538 -0.879,2.46 l 2.87,6.06 -6.607,1.149 c -1.005,0.175 -1.678,1.131 -1.504,2.137 0.175,1.005 1.132,1.681 2.137,1.504 L 4.23,11.925 c 0.568,-0.1 1.058,-0.458 1.324,-0.97 C 5.819,10.441 5.83,9.835 5.583,9.312 L 1.671,1.056 C 1.355,0.39 0.692,0 0,0"
         style="fill:#86ce4c;fill-opacity:1;fill-rule:nonzero;stroke:none"
         transform="matrix(1.3333333,0,0,-1.3333333,320.41573,709.31587)"
         clip-path="url(#clipPath73)" />
      <path
         id="path74"
         d="m 0,0 h -52.494 c -3.163,0 -5.727,2.563 -5.727,5.725 v 3.606 c 0,3.161 2.564,5.726 5.727,5.726 H 0 c 3.162,0 5.726,-2.565 5.726,-5.726 V 5.725 C 5.726,2.563 3.162,0 0,0"
         style="fill:#df681b;fill-opacity:1;fill-rule:nonzero;stroke:none"
         transform="matrix(1.3333333,0,0,-1.3333333,277.2332,781.05)"
         clip-path="url(#clipPath75)" />
      <path
         id="path76"
         d="m 1.1363062,4.578125e-4 h 1.3476563 c 0.3867187,0 0.5039062,-0.1289062525 0.5039062,-0.5039062525 V -2.8237609 H 3.2574 c 0.4921875,0 0.703125,0.2109375 0.9023437,0.609375 l 0.7617188,1.64062496 C 5.1324,-0.15188594 5.3902125,4.578125e-4 6.023025,4.578125e-4 h 1.2890625 c 0.3984375,0 0.4804687,-0.2578125025 0.3164062,-0.5859375025 L 6.5503687,-2.6245422 C 6.4566187,-2.8237609 6.35115,-2.9878234 6.2222437,-3.1401672 7.0425562,-3.5971984 7.523025,-4.4409484 7.523025,-5.6011047 c 0,-1.8515625 -1.171875,-2.8828125 -2.9765625,-2.8828125 H 1.1363062 c -0.3867187,0 -0.5039062,0.1289063 -0.5039062,0.5039063 v 7.47656246 c 0,0.375 0.1171875,0.5039062525 0.5039062,0.5039062525 z M 2.9878687,-4.8159484 v -1.59375 h 1.2890625 c 0.515625,0 0.7851563,0.3046875 0.7851563,0.796875 0,0.4804687 -0.28125,0.796875 -0.7851563,0.796875 z M 9.9839625,4.578125e-4 h 5.1093745 c 0.375,0 0.503907,-0.1289062525 0.503907,-0.5039062525 V -1.5932922 c 0,-0.375 -0.128907,-0.5039062 -0.503907,-0.5039062 h -3.257812 v -1.1367188 h 2.519531 c 0.386719,0 0.515625,-0.140625 0.515625,-0.515625 v -1.0664062 c 0,-0.3867188 -0.128906,-0.515625 -0.515625,-0.515625 h -2.519531 v -1.078125 h 3.152344 c 0.386718,0 0.515625,-0.1171875 0.515625,-0.5039063 v -1.0664062 c 0,-0.375 -0.128907,-0.5039063 -0.515625,-0.5039063 H 9.9839625 c -0.3867188,0 -0.5039063,0.1289063 -0.5039063,0.5039063 v 7.47656246 c 0,0.375 0.1171875,0.5039062525 0.5039063,0.5039062525 z m 7.9775395,0 h 1.21875 c 0.386718,0 0.515625,-0.1171875025 0.515625,-0.4921875025 V -2.2026672 c 0,-0.8203125 -0.05859,-1.4179687 -0.492188,-3.140625 h 0.117188 c 0.117187,0.4335938 0.492187,1.5234375 0.738281,1.9804688 l 0.714844,1.359375 c 0.128906,0.2578125 0.246093,0.328125 0.574218,0.328125 h 0.796875 c 0.316407,0 0.445313,-0.09375 0.5625,-0.328125 l 0.679688,-1.359375 c 0.246094,-0.4804688 0.679687,-1.5820313 0.808594,-1.9804688 h 0.128906 c -0.457031,1.59375 -0.527344,2.34375 -0.527344,3.1289063 v 1.72265621 c 0,0.375 0.128906,0.4921875025 0.503906,0.4921875025 h 1.300782 c 0.375,0 0.515625,-0.1171875025 0.515625,-0.4921875025 V -7.9917297 c 0,-0.375 -0.140625,-0.4921875 -0.515625,-0.4921875 h -1.195313 c -0.398437,0 -0.515625,0.046875 -0.667969,0.375 l -1.980468,3.8554688 -1.96875,-3.8671875 c -0.140625,-0.3046875 -0.304688,-0.3632813 -0.703125,-0.3632813 h -1.125 c -0.386719,0 -0.503907,0.1171875 -0.503907,0.4921875 v 7.50000001 c 0,0.375 0.117188,0.4921875025 0.503907,0.4921875025 z M 31.733962,0.17623906 c 2.355469,0 3.667969,-1.27734376 3.667969,-3.32812496 v -2.1796875 c 0,-2.0507813 -1.3125,-3.3398438 -3.667969,-3.3398438 -2.367187,0 -3.667968,1.2890625 -3.667968,3.3398438 v 2.1796875 c 0,2.0507812 1.300781,3.32812496 3.667968,3.32812496 z m 0,-2.08593746 c -0.84375,0 -1.3125,-0.3984375 -1.3125,-1.1484375 v -2.3671875 c 0,-0.75 0.46875,-1.1484375 1.3125,-1.1484375 0.820313,0 1.300782,0.3984375 1.300782,1.1484375 v 2.3671875 c 0,0.75 -0.480469,1.1484375 -1.300782,1.1484375 z m 7.845704,1.9101562125 h 1.347656 c 0.386719,0 0.503906,-0.1289062525 0.503906,-0.5039062525 V -6.4096984 h 1.78125 c 0.386719,0 0.503906,-0.1171875 0.503906,-0.5039063 v -1.0664062 c 0,-0.375 -0.117187,-0.5039063 -0.503906,-0.5039063 h -5.917969 c -0.386718,0 -0.503906,0.1289063 -0.503906,0.5039063 v 1.0664062 c 0,0.3867188 0.117188,0.5039063 0.503906,0.5039063 h 1.78125 v 5.90624996 c 0,0.375 0.117188,0.5039062525 0.503907,0.5039062525 z m 6.336914,0 h 5.109375 c 0.375,0 0.503906,-0.1289062525 0.503906,-0.5039062525 V -1.5932922 c 0,-0.375 -0.128906,-0.5039062 -0.503906,-0.5039062 h -3.257813 v -1.1367188 h 2.519531 c 0.386719,0 0.515625,-0.140625 0.515625,-0.515625 v -1.0664062 c 0,-0.3867188 -0.128906,-0.515625 -0.515625,-0.515625 h -2.519531 v -1.078125 h 3.152344 c 0.386719,0 0.515625,-0.1171875 0.515625,-0.5039063 v -1.0664062 c 0,-0.375 -0.128906,-0.5039063 -0.515625,-0.5039063 H 45.91658 c -0.386719,0 -0.503907,0.1289063 -0.503907,0.5039063 v 7.47656246 c 0,0.375 0.117188,0.5039062525 0.503907,0.5039062525 z m 0,0"
         style="fill:#ffffff;fill-opacity:1;fill-rule:nonzero;stroke:none"
         aria-label="REMOTE"
         transform="matrix(1.3333333,0,0,1.3333333,207.1568,776.40173)" />
    </g>
  </g>
</svg>
